<?xml version="1.0" encoding="iso-8859-1"?>
<!-- Generator: Adobe Illustrator 19.0.0, SVG Export Plug-In . SVG Version: 6.00 Build 0)  -->
<svg xmlns="http://www.w3.org/2000/svg" xmlns:xlink="http://www.w3.org/1999/xlink" version="1.1" id="Capa_1" x="0px" y="0px" viewBox="0 0 512 512" style="enable-background:new 0 0 512 512;" xml:space="preserve" width="512px" height="512px">
<g>
	<g>
		<polygon points="169.547,132.301 150.456,155.633 356.333,361.509 379.664,342.418   " fill="#FFFFFF"/>
	</g>
</g>
<g>
	<g>
		<path d="M507.557,216.509L380.277,89.243c-3.999-4.014-9.946-5.449-15.352-3.618l-35.171,11.719l11.719-35.186    c1.802-5.391,0.396-11.338-3.618-15.352L295.433,4.385c-6.105-6.135-16.465-5.895-22.222,1.113L188.638,108.97l214.358,214.358    l103.448-84.597C513.352,233.056,513.811,222.733,507.557,216.509z" fill="#FFFFFF"/>
	</g>
</g>
<g>
	<g>
		<path d="M130.366,179.408l-14.312,17.49c-24.492,29.941-22.339,73.154,5.024,100.518l13.022,13.008L28.706,389.481    c-31.155,23.344-38.864,68.984-13.389,98.833c27.95,32.81,78.935,31.317,104.766-3.135l80.903-107.871l13.008,13.022    c27.363,27.393,70.591,29.502,100.518,5.024l17.49-14.312L130.366,179.408z M72.08,454.33c-8.284,0-15-6.716-15-15s6.716-15,15-15    s15,6.716,15,15S80.363,454.33,72.08,454.33z" fill="#FFFFFF"/>
	</g>
</g>
<g>
</g>
<g>
</g>
<g>
</g>
<g>
</g>
<g>
</g>
<g>
</g>
<g>
</g>
<g>
</g>
<g>
</g>
<g>
</g>
<g>
</g>
<g>
</g>
<g>
</g>
<g>
</g>
<g>
</g>
</svg>
