<?xml version="1.0" encoding="iso-8859-1"?>
<!-- Generator: Adobe Illustrator 19.0.0, SVG Export Plug-In . SVG Version: 6.00 Build 0)  -->
<svg version="1.1" id="Capa_1" xmlns="http://www.w3.org/2000/svg" xmlns:xlink="http://www.w3.org/1999/xlink" x="0px" y="0px"
	 viewBox="0 0 512 512" style="enable-background:new 0 0 512 512;" xml:space="preserve">
<g>
	<g>
		<path d="M345.271,98.329c-30.228-30.223-74.249-31.549-120.774-3.637l-57.021,34.211c-6.386,3.832-10.652,10.392-11.563,17.786
			c-0.91,7.392,1.637,14.793,6.902,20.06c15.72,15.722,15.719,41.297-0.003,57.017c-7.613,7.613-17.736,11.806-28.505,11.808
			c-10.769,0-20.892-4.193-28.507-11.808c-9.447-9.447-24.762-9.447-34.211,0L25.98,269.379C9.226,286.132,0,308.406,0,332.098
			s9.226,45.967,25.978,62.72l28.509,28.509l17.101-17.104c0.015-0.018,0.031-0.029,0.047-0.044l290.742-290.742L345.271,98.329z"/>
	</g>
</g>
<g>
	<g>
		<path d="M413.689,166.754l-17.106-17.106L105.8,440.43c-0.013,0.016-0.029,0.027-0.045,0.042l-17.059,17.065l28.509,28.505
			c0,0.002,0,0.002,0,0.002c34.584,34.58,90.856,34.58,125.436-0.002l45.611-45.611c4.536-4.536,7.086-10.689,7.086-17.104
			c0-6.417-2.548-12.569-7.086-17.104c-15.72-15.719-15.72-41.297-0.003-57.016c15.72-15.719,41.3-15.719,57.021,0
			c5.269,5.267,12.667,7.813,20.06,6.902c7.392-0.91,13.953-5.177,17.786-11.564l34.209-57.016
			C445.242,241.003,443.915,196.982,413.689,166.754z"/>
	</g>
</g>
<g>
	<g>
		<path d="M71.593,440.432l-17.106-17.106l-5.702,5.706c-9.444,9.445-9.444,24.759,0.003,34.206c0,0,0.002,0.002,0.002,0.003
			c9.449,9.444,24.764,9.442,34.211-0.006l5.696-5.698L71.593,440.432z"/>
	</g>
</g>
<g>
	<g>
		<path d="M499.215,47.017l5.701-5.701c9.445-9.447,9.445-24.764,0-34.209c-9.445-9.447-24.762-9.445-34.209,0l-5.702,5.702
			l-5.702-5.704c-9.447-9.447-24.762-9.447-34.211,0.002c-9.445,9.447-9.445,24.763,0.002,34.211l5.701,5.701l-68.416,68.417
			l34.208,34.211l68.42-68.419l5.701,5.702c9.445,9.445,24.761,9.445,34.209-0.002c9.445-9.447,9.445-24.762,0-34.209
			L499.215,47.017z"/>
	</g>
</g>
<g>
</g>
<g>
</g>
<g>
</g>
<g>
</g>
<g>
</g>
<g>
</g>
<g>
</g>
<g>
</g>
<g>
</g>
<g>
</g>
<g>
</g>
<g>
</g>
<g>
</g>
<g>
</g>
<g>
</g>
</svg>
